# xmcd
#
# Track frame offsets: 
#        150
#        14939
#        32092
#        55462
#        76850
#        94032
#        110809
#        127529
#        145560
#        162719
#        180044
#
# Disc length: 2679 seconds
#
# Revision: 0
# Processed by: cddbd v1.5.2PL0 Copyright (c) Steve Scherf et al.
# Submitted via: ExactAudioCopy v1.0b4
#
DISCID=880a750b
DTITLE=Kenny Neal - Bloodline
DYEAR=2016
DGENRE=Blues
TTITLE0=Ain’t Gon’ Let the Blues Die
TTITLE1=Bloodline
TTITLE2=Plain Old Common Sense
TTITLE3=Funny How Time Slips Away
TTITLE4=Keep on Moving
TTITLE5=I Go By Feel
TTITLE6=I’m So Happy
TTITLE7=Blues Mobile
TTITLE8=I Can’t Wait
TTITLE9=Real Friend
TTITLE10=Thank You BB King
EXTD=
EXTT0=
EXTT1=
EXTT2=
EXTT3=
EXTT4=
EXTT5=
EXTT6=
EXTT7=
EXTT8=
EXTT9=
EXTT10=
PLAYORDER=
